# xmcd
#
# Track frame offsets:
#	183
#	18110
#	33158
#	52948
#	69780
#	90178
#	110905
#	127990
#	145780
#	163085
#	180183
#	198763
#	217708
#	234493
#	250873
#	267823
#	285083
#	302850
#	320248
#	336783
#
# Disc length: 4721 seconds
#
# Revision: 1
# Processed by: cddbd v1.4PL0 Copyright (c) Steve Scherf et al.
# Submitted via: audiograbber 1.80.04
#
DISCID=fd126f14
DTITLE=New Soul Rebels - Vybin'3 Disk 2
DYEAR=1996
DGENRE=Dance
TTITLE0=Mark Morrison - Return Of The Mack
TTITLE1=TLC - Diggin' On You
TTITLE2=Luniz - I Got 5 On It
TTITLE3=Brownstone - If You Love Me
TTITLE4=R Kelly - Your Body's Callin'
TTITLE5=Bobby Brown - Rock Wit'cha
TTITLE6=Soul II Soul - Love Enuff
TTITLE7=Skee - Lo
TTITLE8=Guy - Tell Me What You Like
TTITLE9=Xscape - Who Can I Run To
TTITLE10=Montrell Jordan - This Is How We Do It
TTITLE11=Brandy - Broken Hearted
TTITLE12=Warren G - Regulate
TTITLE13=Beverley Knight - Moving On Up (On The Right Side)
TTITLE14=Q Tee - Gimme That Body
TTITLE15=DON - e
TTITLE16=Ivan Matias - So Good (To Come Home To)
TTITLE17=Aaliyah - Throw Your Hands Up
TTITLE18=C223 - (Can't Always Have) Sunshine
TTITLE19=M People - Search For The Hero
EXTD=
EXTT0=
EXTT1=
EXTT2=
EXTT3=
EXTT4=
EXTT5=
EXTT6=
EXTT7=
EXTT8=
EXTT9=
EXTT10=
EXTT11=
EXTT12=
EXTT13=
EXTT14=
EXTT15=
EXTT16=
EXTT17=
EXTT18=
EXTT19=
PLAYORDER=
